<?xml version="1.0" encoding="UTF-8"?>
<!DOCTYPE svg PUBLIC "-//W3C//DTD SVG 1.1//EN" "http://www.w3.org/Graphics/SVG/1.1/DTD/svg11.dtd">
<svg xmlns="http://www.w3.org/2000/svg" version="1.1" width="16px" height="16px" style="shape-rendering:geometricPrecision; text-rendering:geometricPrecision; image-rendering:optimizeQuality; fill-rule:evenodd; clip-rule:evenodd" xmlns:xlink="http://www.w3.org/1999/xlink">
<g><path style="opacity:0.446" fill="#1976d2" d="M 3.5,-0.5 C 6.16667,-0.5 8.83333,-0.5 11.5,-0.5C 13.1667,0.5 14.5,1.83333 15.5,3.5C 15.5,6.16667 15.5,8.83333 15.5,11.5C 14.5,13.1667 13.1667,14.5 11.5,15.5C 8.83333,15.5 6.16667,15.5 3.5,15.5C 1.83333,14.5 0.5,13.1667 -0.5,11.5C -0.5,8.83333 -0.5,6.16667 -0.5,3.5C 0.5,1.83333 1.83333,0.5 3.5,-0.5 Z M 12.5,10.5 C 11.7002,8.25915 10.0336,7.25915 7.5,7.5C 7.74085,4.96644 6.74085,3.29977 4.5,2.5C 6.49606,0.521821 8.8294,0.521821 11.5,2.5C 13.599,5.06618 13.9323,7.73284 12.5,10.5 Z M 4.5,2.5 C 4.16667,3.5 3.5,4.16667 2.5,4.5C 2.5,3.16667 3.16667,2.5 4.5,2.5 Z M 2.5,4.5 C 3.16667,9.16667 5.83333,11.8333 10.5,12.5C 3.16667,14.5 0.5,11.8333 2.5,4.5 Z M 12.5,10.5 C 12.5,11.8333 11.8333,12.5 10.5,12.5C 10.8333,11.5 11.5,10.8333 12.5,10.5 Z"/></g>
<g><path style="opacity:0.445" fill="#1976d2" d="M 4.5,2.5 C 6.74085,3.29977 7.74085,4.96644 7.5,7.5C 10.0336,7.25915 11.7002,8.25915 12.5,10.5C 11.5,10.8333 10.8333,11.5 10.5,12.5C 5.83333,11.8333 3.16667,9.16667 2.5,4.5C 3.5,4.16667 4.16667,3.5 4.5,2.5 Z"/></g>
</svg>
